<svg width="70" height="35" viewBox="0 0 70 35" fill="none" xmlns="http://www.w3.org/2000/svg">
<g clip-path="url(#clip0_432_19)">
<path d="M2.12233 1.07461C0.921216 1.807 0.569669 2.4808 0.569669 4.09206C0.569669 5.20529 0.716147 5.52754 1.47783 6.17204C1.97586 6.58218 3.26486 7.19738 4.37809 7.54893C6.89751 8.31061 7.89356 9.043 7.89356 10.1269C7.89356 11.4745 7.27835 12.0019 5.52062 12.1483C4.08514 12.2655 3.79218 12.1776 2.97191 11.4745C2.44458 11.0351 2.03445 10.5078 2.03445 10.2734C2.03445 9.98046 1.80008 9.92187 1.09699 10.0683C-0.16272 10.3027 -0.133424 10.2441 0.393896 11.2695C1.15558 12.7635 2.50318 13.4959 4.67105 13.6131C8.04004 13.8182 9.79777 12.5292 9.79777 9.92187C9.79777 8.83793 9.65129 8.51568 8.86031 7.81259C8.33299 7.34386 7.13187 6.72866 6.22371 6.465C5.28625 6.20134 4.02655 5.73261 3.44063 5.43965C2.47388 4.94163 2.3274 4.73656 2.3274 3.88699C2.3274 2.68587 2.82543 2.24644 4.40739 2.04137C5.81357 1.8363 7.45412 2.53939 7.68849 3.47685C7.80567 3.91628 8.01074 3.97487 8.68454 3.8284C9.12397 3.71121 9.56341 3.59403 9.622 3.53544C9.91495 3.27178 8.47947 1.45546 7.6006 1.01602C6.16512 0.283633 3.35275 0.312929 2.12233 1.07461Z" fill="white"/>
<path d="M15.8032 5.38103C15.8032 10.9472 16.0376 11.7968 17.8539 13.0272C18.7328 13.6131 19.1722 13.701 20.8421 13.6131C23.0978 13.4959 24.1525 12.91 24.9434 11.2987C25.3829 10.4785 25.4708 9.48241 25.4708 5.38103V0.488674H24.5919H23.713V5.02949C23.713 10.4492 23.4494 11.3573 21.8088 11.9139C20.9592 12.2069 20.4612 12.2069 19.5823 11.9432C17.766 11.3866 17.561 10.6835 17.561 5.17596V0.488674H16.6821H15.8032V5.38103Z" fill="white"/>
<path d="M32.2085 7.08025V13.6718H33.2338H34.2592V10.7422V7.81264H36.4564C38.5949 7.81264 38.6535 7.78335 38.6535 7.08025C38.6535 6.37716 38.5949 6.34786 36.4564 6.34786H34.2592V4.29718V2.24649H36.8958H39.5324V1.36762V0.488754H35.8704H32.2085V7.08025Z" fill="white"/>
<path d="M46.417 6.69941C45.1573 10.127 44.0733 13.1151 43.9854 13.3202C43.8976 13.6132 44.1026 13.701 44.8057 13.6132C45.6846 13.5253 45.8311 13.3788 46.3584 11.9726L46.9443 10.4199L49.8738 10.5078L52.7741 10.5957L53.36 12.1191C53.858 13.496 54.0338 13.6718 54.7955 13.6718C55.2642 13.6718 55.6451 13.5839 55.6451 13.496C55.6451 13.3788 51.9538 3.21324 51.1043 0.986779C50.9578 0.635232 50.5769 0.488754 49.786 0.488754H48.702L46.417 6.69941ZM50.9285 5.41041C51.4851 6.96307 51.9831 8.42785 52.071 8.60362C52.1589 8.89658 51.573 8.98446 49.786 8.98446C47.9989 8.98446 47.4423 8.89658 47.5302 8.60362C47.6181 8.42785 48.1161 6.96307 48.6434 5.38111C49.1708 3.82845 49.6981 2.53944 49.786 2.53944C49.8738 2.53944 50.3719 3.82845 50.9285 5.41041Z" fill="white"/>
<path d="M60.3325 1.36762V2.24649H63.848C65.7815 2.24649 67.3635 2.30508 67.3635 2.39297C67.3635 2.48085 65.7815 4.67802 63.848 7.31462C61.3872 10.6543 60.3325 12.2949 60.3325 12.8515V13.6718H65.1663H70.0001V12.7929V11.9433L66.3381 11.8554L62.6469 11.7675L66.1916 6.93378C68.6232 3.56479 69.7071 1.86565 69.7071 1.27973V0.488754H65.0198H60.3325V1.36762Z" fill="white"/>
<path d="M6.69224 17.7731C1.79989 18.6227 -1.10037 23.808 0.393699 28.964C1.12609 31.3663 2.26861 32.7725 4.40719 33.8564C6.80943 35.0575 9.85616 35.1454 12.1412 34.0615C13.5181 33.4462 15.8032 31.3077 15.8032 30.6632C15.8032 30.5167 15.393 30.1651 14.9243 29.9308C14.0161 29.4621 14.0161 29.4621 12.7564 30.7804C10.2663 33.3291 6.86802 33.417 4.3486 30.9854C2.15143 28.8468 1.712 25.5072 3.26466 22.6655C5.13958 19.2672 10.6471 18.8571 12.9908 21.9624C13.7525 22.9584 13.8111 22.9877 14.7192 22.6069C15.2172 22.4018 15.686 22.0796 15.7446 21.9038C15.8032 21.7573 15.3051 21.0249 14.6313 20.3218C12.6978 18.2126 9.68039 17.2458 6.69224 17.7731Z" fill="white"/>
<path d="M27.6677 18.2713C27.1697 19.5603 21.6621 34.5303 21.6621 34.6768C21.6621 34.7354 22.2187 34.7646 22.8925 34.7061L24.0936 34.6182L24.7381 32.714L25.3826 30.8097L29.2204 30.7219L33.0581 30.634L33.7026 32.714L34.3764 34.7646H35.6361H36.8665L36.0462 32.4796C35.5775 31.2492 34.1713 27.4115 32.9409 23.9839L30.6558 17.7732H29.279C28.2243 17.7732 27.8142 17.8904 27.6677 18.2713ZM30.8609 24.5991C31.5933 26.6791 32.2085 28.4368 32.2085 28.4954C32.2085 28.554 30.8902 28.6126 29.279 28.6126C27.6677 28.6126 26.3494 28.5247 26.3494 28.4075C26.3494 27.7923 29.1325 20.4391 29.3082 20.6149C29.3961 20.7614 30.0992 22.5484 30.8609 24.5991Z" fill="white"/>
<path d="M44.2197 26.2689V34.7646H45.3915H46.5634V30.9562V27.1478H49.4929H52.4225V26.1225V25.0971H49.4929H46.5634V22.4605V19.8239H49.9324H53.3013V18.7986V17.7732H48.7605H44.2197V26.2689Z" fill="white"/>
<path d="M60.9185 26.2689V34.7646H65.4593H70.0001V33.7393V32.714H66.6311H63.2621V29.9309V27.1478H66.1917H69.1212V26.1225V25.0971H66.1917H63.2621V22.4605V19.8239H66.6311H70.0001V18.7986V17.7732H65.4593H60.9185V26.2689Z" fill="white"/>
</g>
<defs>
<clipPath id="clip0_432_19">
<rect width="70" height="35" fill="white"/>
</clipPath>
</defs>
</svg>
