<svg width="110" height="206" viewBox="0 0 110 206" fill="none" xmlns="http://www.w3.org/2000/svg">
<g clip-path="url(#clip0_430_2)">
<path d="M51.1339 2.93723C51.0879 4.59414 50.6277 6.57322 49.6611 8.9205C48.0042 12.9247 47.6821 17.2971 48.8327 20.0125L49.477 21.5314L49.5231 18.8619C49.5231 16.9749 49.9373 15.2259 50.8118 13.1548C52.3766 9.42677 52.8369 4.96234 51.8243 2.33891L51.1339 0.497903V2.93723Z" fill="white"/>
<path d="M41.9289 7.49369C41.8828 9.5188 41.4686 11.3138 40.5021 13.7531C39.0293 17.4811 38.7071 20.979 39.6276 23.7866C40.5021 26.318 40.7322 26.1799 40.5941 23.3724C40.4561 21.2552 40.7322 20.0125 41.8828 17.0669C43.5858 12.8326 43.8619 8.92047 42.6653 6.25101L41.9749 4.64014L41.9289 7.49369Z" fill="white"/>
<path d="M58.1757 9.15056C58.1297 11.2677 57.7615 12.7405 56.841 14.7656C55.7364 17.0669 55.5063 18.1715 55.5063 21.2091C55.4602 23.6485 55.6904 25.3054 56.1506 26.1338C56.795 27.3305 56.841 27.2384 56.887 24.0627C56.933 21.5313 57.2552 20.1045 58.1757 18.0794C58.8201 16.6527 59.5105 14.6736 59.6485 13.707C59.9247 11.9581 59.1423 6.89533 58.5439 6.52713C58.3598 6.43508 58.2217 7.63173 58.1757 9.15056Z" fill="white"/>
<path d="M26.2344 32.7155C26.2344 32.8076 27.7072 35.0168 29.4561 37.5942L32.6779 42.2887V47.0293V51.7699L30.0084 53.1967C23.795 56.4645 18.7323 61.9415 15.1884 69.0753C12.657 74.1841 11.5063 78.9707 11.5063 84.5858C11.5063 91.0293 12.4729 95.3557 15.1884 100.833C19.5607 109.808 26.1423 115.837 35.2093 119.243C38.339 120.439 38.5231 120.439 48.7407 120.301L59.1423 120.163L64.2051 117.678C68.7155 115.469 69.7281 114.732 73.6402 110.774C77.4603 106.954 78.3808 105.711 80.4519 101.523C86.8034 88.9122 85.8369 75.6569 77.7825 63.7825C75.8034 60.8829 71.6611 56.8327 68.4854 54.6235C66.4603 53.2887 66.2762 52.9666 66.2762 51.3557V49.5147H72.9038H79.4854L81.7867 51.908C88.9206 59.5021 93.5231 69.1674 95.0879 79.9833C95.318 81.6862 95.3641 81.7323 97.3892 81.7323C99.2762 81.7323 99.4143 81.6402 99.2302 80.6737C99.0921 80.1214 98.908 78.5565 98.7239 77.2218C98.3557 73.8159 96.4227 67.4645 94.5816 63.4603C92.2804 58.4436 89.1047 53.9331 84.7323 49.3766L80.8662 45.3724H73.5942H66.2762V41.4603C66.2762 37.7783 66.2302 37.5482 65.2637 37.3641C64.6653 37.226 56.2427 36.1674 46.4854 35.0168C36.7281 33.8661 28.2135 32.8536 27.5231 32.7155C26.7867 32.6235 26.2344 32.6235 26.2344 32.7155ZM65.4017 57.7072C70.4185 60.9289 75.4352 66.8201 77.8285 72.3431C78.8871 74.8745 79.8996 78.8327 80.2678 82.0544L80.59 84.4938H48.0503H15.5566L15.8787 81.5942C17.0754 71.4226 22.0001 63.3682 30.5607 57.7072L32.4478 56.4645H47.9122L63.3306 56.4184L65.4017 57.7072Z" fill="white"/>
<path d="M3.35988 132.82C1.47285 133.971 0.920551 135.029 0.920551 137.561C0.920551 139.31 1.15068 139.816 2.34733 140.828C3.12976 141.473 5.15486 142.439 6.90381 142.992C10.862 144.188 12.4268 145.339 12.4268 147.042C12.4268 149.159 11.4603 149.987 8.69879 150.218C6.44356 150.402 5.98331 150.264 4.69461 149.159C3.86616 148.469 3.22181 147.64 3.22181 147.272C3.22181 146.812 2.85361 146.72 1.749 146.95C-0.230076 147.318 -0.184051 147.226 0.644401 148.837C1.84105 151.184 3.95821 152.335 7.36407 152.519C12.657 152.841 15.4185 150.816 15.4185 146.72C15.4185 145.017 15.1883 144.511 13.9457 143.406C13.1172 142.669 11.2302 141.703 9.8034 141.289C8.33059 140.875 6.35151 140.138 5.43101 139.678C3.91218 138.895 3.68206 138.573 3.68206 137.239C3.68206 135.352 4.46448 134.661 6.94984 134.339C9.15904 134.017 11.7364 135.121 12.1047 136.594C12.2888 137.285 12.6109 137.377 13.6695 137.146C14.3599 136.962 15.0503 136.778 15.1423 136.686C15.6026 136.272 13.3473 133.418 11.9666 132.728C9.71134 131.577 5.29294 131.623 3.35988 132.82Z" fill="white"/>
<path d="M24.8535 139.586C24.8535 148.331 25.2217 149.665 28.0753 151.598C29.456 152.519 30.1464 152.657 32.7698 152.519C36.3138 152.335 37.9707 151.414 39.2133 148.883C39.9037 147.594 40.0418 146.029 40.0418 139.586V131.9H38.661H37.2803V139.033C37.2803 147.548 36.8661 148.975 34.2887 149.849C32.9539 150.31 32.1715 150.31 30.7908 149.895C27.9372 149.021 27.615 147.916 27.615 139.264V131.9H26.2343H24.8535V139.586Z" fill="white"/>
<path d="M50.6276 142.255V152.611H52.2384H53.8493V148.008V143.406H57.3012C60.661 143.406 60.7531 143.36 60.7531 142.255C60.7531 141.151 60.661 141.105 57.3012 141.105H53.8493V137.883V134.661H57.9916H62.1338V133.28V131.9H56.3807H50.6276V142.255Z" fill="white"/>
<path d="M72.9497 141.657C70.9707 147.042 69.2677 151.736 69.1297 152.059C68.9916 152.519 69.3138 152.657 70.4184 152.519C71.7991 152.381 72.0292 152.151 72.8577 149.942L73.7782 147.502L78.3807 147.64L82.9372 147.778L83.8577 150.172C84.6401 152.335 84.9163 152.611 86.1129 152.611C86.8493 152.611 87.4477 152.473 87.4477 152.335C87.4477 152.151 81.6485 136.18 80.3138 132.682C80.0836 132.13 79.4853 131.9 78.2426 131.9H76.5397L72.9497 141.657ZM80.0376 139.632C80.9121 142.071 81.6945 144.372 81.8326 144.649C81.9707 145.109 81.0502 145.247 78.2426 145.247C75.4351 145.247 74.5606 145.109 74.6987 144.649C74.8368 144.372 75.6192 142.071 76.4477 139.586C77.2761 137.147 78.1046 135.121 78.2426 135.121C78.3807 135.121 79.1631 137.147 80.0376 139.632Z" fill="white"/>
<path d="M94.8116 133.28V134.661H100.335C103.372 134.661 105.858 134.753 105.858 134.891C105.858 135.029 103.372 138.481 100.335 142.624C96.4685 147.87 94.8116 150.448 94.8116 151.322V152.611H102.406H110V151.23V149.895L104.247 149.757L98.4476 149.619L104.017 142.025C107.837 136.732 109.54 134.063 109.54 133.142V131.9H102.176H94.8116V133.28Z" fill="white"/>
<path d="M10.5397 159.054C2.85349 160.389 -1.703 168.536 0.644282 176.636C1.79491 180.41 3.58989 182.619 6.94972 184.322C10.7238 186.209 15.5104 186.347 19.1003 184.644C21.2635 183.678 24.8535 180.318 24.8535 179.305C24.8535 179.075 24.2091 178.523 23.4727 178.155C22.046 177.418 22.046 177.418 20.0669 179.49C16.1547 183.494 10.8158 183.632 6.85767 179.812C3.40579 176.452 2.71541 171.205 5.15474 166.741C8.10035 161.402 16.7531 160.757 20.4351 165.636C21.6317 167.201 21.7238 167.247 23.1506 166.649C23.933 166.326 24.6694 165.82 24.7614 165.544C24.8535 165.314 24.0711 164.163 23.0125 163.059C19.9748 159.745 15.2342 158.226 10.5397 159.054Z" fill="white"/>
<path d="M43.4936 159.837C42.7112 161.862 34.0585 185.381 34.0585 185.611C34.0585 185.703 34.9329 185.749 35.9915 185.657L37.8786 185.519L38.8911 182.527L39.9037 179.536L45.9329 179.398L51.9622 179.259L52.9748 182.527L54.0334 185.749H56.0124H57.9455L56.6568 182.159C55.9204 180.226 53.7112 174.197 51.7781 168.812L48.1882 159.054H46.025C44.3681 159.054 43.7237 159.239 43.4936 159.837ZM48.5104 169.778C49.661 173.046 50.6275 175.808 50.6275 175.9C50.6275 175.992 48.5564 176.084 46.025 176.084C43.4936 176.084 41.4225 175.946 41.4225 175.762C41.4225 174.795 45.7949 163.243 46.071 163.519C46.2091 163.749 47.3137 166.557 48.5104 169.778Z" fill="white"/>
<path d="M69.4979 172.402V185.749H71.3389H73.1799V179.766V173.782H77.7824H82.385V172.172V170.561H77.7824H73.1799V166.418V162.276H78.4728H83.7657V160.665V159.054H76.6318H69.4979V172.402Z" fill="white"/>
<path d="M95.7323 172.402V185.749H102.866H110V184.138V182.527H104.707H99.4143V178.155V173.782H104.017H108.619V172.172V170.561H104.017H99.4143V166.418V162.276H104.707H110V160.665V159.054H102.866H95.7323V172.402Z" fill="white"/>
<path d="M0 204.619V206H55H110V204.619V203.238H55H0V204.619Z" fill="white"/>
</g>
<defs>
<clipPath id="clip0_430_2">
<rect width="110" height="206" fill="white"/>
</clipPath>
</defs>
</svg>
