<svg width="319" height="595" viewBox="0 0 319 595" fill="none" xmlns="http://www.w3.org/2000/svg">
<g clip-path="url(#clip0_366_10)">
<path d="M148.133 6.73343C148 11.5334 146.667 17.2668 143.867 24.0668C139.067 35.6668 138.133 48.3334 141.467 56.2001L143.333 60.6001L143.467 52.8668C143.467 47.4001 144.667 42.3334 147.2 36.3334C151.733 25.5334 153.067 12.6001 150.133 5.0001L148.133 -0.333241V6.73343Z" fill="black"/>
<path d="M121.467 19.9334C121.333 25.8 120.133 31 117.333 38.0667C113.067 48.8667 112.133 59 114.8 67.1334C117.333 74.4667 118 74.0667 117.6 65.9334C117.2 59.8 118 56.2 121.333 47.6667C126.267 35.4 127.067 24.0667 123.6 16.3334L121.6 11.6667L121.467 19.9334Z" fill="black"/>
<path d="M168.533 24.7333C168.4 30.8666 167.333 35.1333 164.667 41C161.467 47.6666 160.8 50.8666 160.8 59.6666C160.667 66.7333 161.333 71.5333 162.667 73.9333C164.533 77.4 164.667 77.1333 164.8 67.9333C164.933 60.6 165.867 56.4666 168.533 50.6C170.4 46.4666 172.4 40.7333 172.8 37.9333C173.6 32.8666 171.333 18.1999 169.6 17.1333C169.067 16.8666 168.667 20.3333 168.533 24.7333Z" fill="black"/>
<path d="M76 92.9999C76 93.2666 80.2667 99.6666 85.3334 107.133L94.6667 120.733V134.467V148.2L86.9334 152.333C68.9334 161.8 54.2667 177.667 44 198.333C36.6667 213.133 33.3334 227 33.3334 243.267C33.3334 261.933 36.1334 274.467 44 290.333C56.6667 316.333 75.7334 333.8 102 343.667C111.067 347.133 111.6 347.133 141.2 346.733L171.333 346.333L186 339.133C199.067 332.733 202 330.6 213.333 319.133C224.4 308.067 227.067 304.467 233.067 292.333C251.467 255.8 248.667 217.4 225.333 183C219.6 174.6 207.6 162.867 198.4 156.467C192.533 152.6 192 151.667 192 147V141.667H211.2H230.267L236.933 148.6C257.6 170.6 270.933 198.6 275.467 229.933C276.133 234.867 276.267 235 282.133 235C287.6 235 288 234.733 287.467 231.933C287.067 230.333 286.533 225.8 286 221.933C284.933 212.067 279.333 193.667 274 182.067C267.333 167.533 258.133 154.467 245.467 141.267L234.267 129.667H213.2H192V118.333C192 107.667 191.867 107 189.067 106.467C187.333 106.067 162.933 103 134.667 99.6666C106.4 96.3333 81.7334 93.3999 79.7334 92.9999C77.6 92.7333 76 92.7333 76 92.9999ZM189.467 165.4C204 174.733 218.533 191.8 225.467 207.8C228.533 215.133 231.467 226.6 232.533 235.933L233.467 243H139.2H45.0667L46 234.6C49.4667 205.133 63.7334 181.8 88.5334 165.4L94 161.8H138.8L183.467 161.667L189.467 165.4Z" fill="black"/>
<path d="M9.73347 383C4.2668 386.333 2.6668 389.4 2.6668 396.733C2.6668 401.8 3.33347 403.267 6.80013 406.2C9.0668 408.067 14.9335 410.867 20.0001 412.467C31.4668 415.933 36.0001 419.267 36.0001 424.2C36.0001 430.333 33.2001 432.733 25.2001 433.4C18.6668 433.933 17.3335 433.533 13.6001 430.333C11.2001 428.333 9.33347 425.933 9.33347 424.867C9.33347 423.533 8.2668 423.267 5.0668 423.933C-0.666534 425 -0.533201 424.733 1.8668 429.4C5.33347 436.2 11.4668 439.533 21.3335 440.067C36.6668 441 44.6668 435.133 44.6668 423.267C44.6668 418.333 44.0001 416.867 40.4001 413.667C38.0001 411.533 32.5335 408.733 28.4001 407.533C24.1335 406.333 18.4001 404.2 15.7335 402.867C11.3335 400.6 10.6668 399.667 10.6668 395.8C10.6668 390.333 12.9335 388.333 20.1335 387.4C26.5335 386.467 34.0001 389.667 35.0668 393.933C35.6001 395.933 36.5335 396.2 39.6001 395.533C41.6001 395 43.6001 394.467 43.8668 394.2C45.2001 393 38.6668 384.733 34.6668 382.733C28.1335 379.4 15.3335 379.533 9.73347 383Z" fill="black"/>
<path d="M72 402.6C72 427.933 73.0667 431.8 81.3333 437.4C85.3333 440.067 87.3333 440.467 94.9333 440.067C105.2 439.533 110 436.867 113.6 429.533C115.6 425.8 116 421.267 116 402.6V380.333H112H108V401C108 425.667 106.8 429.8 99.3333 432.333C95.4667 433.667 93.2 433.667 89.2 432.467C80.9333 429.933 80 426.733 80 401.667V380.333H76H72V402.6Z" fill="black"/>
<path d="M146.667 410.333V440.333H151.333H156V427V413.667H166C175.733 413.667 176 413.533 176 410.333C176 407.133 175.733 407 166 407H156V397.667V388.333H168H180V384.333V380.333H163.333H146.667V410.333Z" fill="black"/>
<path d="M211.333 408.6C205.6 424.2 200.667 437.8 200.267 438.733C199.867 440.067 200.8 440.467 204 440.067C208 439.667 208.667 439 211.067 432.6L213.733 425.533L227.067 425.933L240.267 426.333L242.933 433.267C245.2 439.533 246 440.333 249.467 440.333C251.6 440.333 253.333 439.933 253.333 439.533C253.333 439 236.533 392.733 232.667 382.6C232 381 230.267 380.333 226.667 380.333H221.733L211.333 408.6ZM231.867 402.733C234.4 409.8 236.667 416.467 237.067 417.267C237.467 418.6 234.8 419 226.667 419C218.533 419 216 418.6 216.4 417.267C216.8 416.467 219.067 409.8 221.467 402.6C223.867 395.533 226.267 389.667 226.667 389.667C227.067 389.667 229.333 395.533 231.867 402.733Z" fill="black"/>
<path d="M274.667 384.333V388.333H290.667C299.467 388.333 306.667 388.6 306.667 389C306.667 389.4 299.467 399.4 290.667 411.4C279.467 426.6 274.667 434.067 274.667 436.6V440.333H296.667H318.667V436.333V432.467L302 432.067L285.2 431.667L301.333 409.667C312.4 394.333 317.333 386.6 317.333 383.933V380.333H296H274.667V384.333Z" fill="black"/>
<path d="M30.5332 459C8.26656 462.867 -4.93344 486.467 1.86656 509.933C5.19989 520.867 10.3999 527.267 20.1332 532.2C31.0666 537.667 44.9332 538.067 55.3332 533.133C61.5999 530.333 71.9999 520.6 71.9999 517.667C71.9999 517 70.1332 515.4 67.9999 514.333C63.8666 512.2 63.8666 512.2 58.1332 518.2C46.7999 529.8 31.3332 530.2 19.8666 519.133C9.86656 509.4 7.86656 494.2 14.9332 481.267C23.4666 465.8 48.5332 463.933 59.1999 478.067C62.6666 482.6 62.9332 482.733 67.0666 481C69.3332 480.067 71.4666 478.6 71.7332 477.8C71.9999 477.133 69.7332 473.8 66.6665 470.6C57.8666 461 44.1332 456.6 30.5332 459Z" fill="black"/>
<path d="M126 461.267C123.733 467.133 98.6665 535.267 98.6665 535.933C98.6665 536.2 101.2 536.333 104.267 536.067L109.733 535.667L112.667 527L115.6 518.333L133.067 517.933L150.533 517.533L153.467 527L156.533 536.333H162.267H167.867L164.133 525.933C162 520.333 155.6 502.867 150 487.267L139.6 459H133.333C128.533 459 126.667 459.533 126 461.267ZM140.533 490.067C143.867 499.533 146.667 507.533 146.667 507.8C146.667 508.067 140.667 508.333 133.333 508.333C126 508.333 120 507.933 120 507.4C120 504.6 132.667 471.133 133.467 471.933C133.867 472.6 137.067 480.733 140.533 490.067Z" fill="black"/>
<path d="M201.333 497.667V536.333H206.667H212V519V501.667H225.333H238.667V497V492.333H225.333H212V480.333V468.333H227.333H242.667V463.667V459H222H201.333V497.667Z" fill="black"/>
<path d="M277.333 497.667V536.333H298H318.667V531.667V527H303.333H288V514.333V501.667H301.333H314.667V497V492.333H301.333H288V480.333V468.333H303.333H318.667V463.667V459H298H277.333V497.667Z" fill="black"/>
<path d="M0 591V595H159.333H318.667V591V587H159.333H0V591Z" fill="black"/>
</g>
<defs>
<clipPath id="clip0_366_10">
<rect width="319" height="595" fill="white"/>
</clipPath>
</defs>
</svg>
